<svg width="2037" height="819" viewBox="0 0 2037 819" fill="none" xmlns="http://www.w3.org/2000/svg">
<path fill-rule="evenodd" clip-rule="evenodd" d="M1243.64 360.846C1259.88 327.69 1269 290.41 1269 251C1269 112.929 1157.07 1 1019 1C880.929 1 769 112.929 769 251C769 290.41 778.119 327.69 794.362 360.846C794.71 362.277 795.204 363.705 795.853 365.115L998.106 804.599C1006.32 822.446 1031.68 822.446 1039.89 804.599L1242.15 365.115C1242.8 363.705 1243.29 362.277 1243.64 360.846ZM1019 401C1101.84 401 1169 333.843 1169 251C1169 168.157 1101.84 101 1019 101C936.157 101 869 168.157 869 251C869 333.843 936.157 401 1019 401Z" fill="#D9D9D9"/>
<path d="M767.046 406.168C772.902 415.987 776.5 422 776.5 422C776.5 422 772.665 416.232 767.046 406.168C745.724 370.416 694.475 284.204 678 254C657 215.5 650 187 571 187C492 187 416 223 327 223C238 223 0.5 79.5 0.5 79.5C116.485 141.713 219 187 320.5 187C422 187 525 132.5 571 119C617 105.5 803.5 63.5 759 119C759 119 737 140 724.5 232.5C715.048 302.444 749.622 374.96 767.046 406.168Z" fill="#D9D9D9"/>
<path d="M1269.45 405.668C1263.6 415.487 1260 421.5 1260 421.5C1260 421.5 1263.84 415.732 1269.45 405.668C1290.78 369.916 1342.03 283.704 1358.5 253.5C1379.5 215 1386.5 186.5 1465.5 186.5C1544.5 186.5 1620.5 222.5 1709.5 222.5C1798.5 222.5 2036 79 2036 79C1920.01 141.213 1817.5 186.5 1716 186.5C1614.5 186.5 1511.5 132 1465.5 118.5C1419.5 105 1233 63 1277.5 118.5C1277.5 118.5 1299.5 139.5 1312 232C1321.45 301.944 1286.88 374.46 1269.45 405.668Z" fill="#D9D9D9"/>
<path d="M767.046 406.168C772.902 415.987 776.5 422 776.5 422C776.5 422 772.665 416.232 767.046 406.168ZM767.046 406.168C745.724 370.416 694.475 284.204 678 254C657 215.5 650 187 571 187C492 187 416 223 327 223C238 223 0.5 79.5 0.5 79.5C116.485 141.713 219 187 320.5 187C422 187 525 132.5 571 119C617 105.5 803.5 63.5 759 119C759 119 737 140 724.5 232.5C715.048 302.444 749.622 374.96 767.046 406.168ZM1269.45 405.668C1263.6 415.487 1260 421.5 1260 421.5C1260 421.5 1263.84 415.732 1269.45 405.668ZM1269.45 405.668C1290.78 369.916 1342.03 283.704 1358.5 253.5C1379.5 215 1386.5 186.5 1465.5 186.5C1544.5 186.5 1620.5 222.5 1709.5 222.5C1798.5 222.5 2036 79 2036 79C1920.01 141.213 1817.5 186.5 1716 186.5C1614.5 186.5 1511.5 132 1465.5 118.5C1419.5 105 1233 63 1277.5 118.5C1277.5 118.5 1299.5 139.5 1312 232C1321.45 301.944 1286.88 374.46 1269.45 405.668ZM1269 251C1269 290.41 1259.88 327.69 1243.64 360.846C1243.29 362.277 1242.8 363.705 1242.15 365.115L1039.89 804.599C1031.68 822.446 1006.32 822.446 998.106 804.599L795.853 365.115C795.204 363.705 794.71 362.277 794.362 360.846C778.119 327.69 769 290.41 769 251C769 112.929 880.929 1 1019 1C1157.07 1 1269 112.929 1269 251ZM1169 251C1169 333.843 1101.84 401 1019 401C936.157 401 869 333.843 869 251C869 168.157 936.157 101 1019 101C1101.84 101 1169 168.157 1169 251Z" stroke="black"/>
</svg>
