<svg width="2036" height="817" viewBox="0 0 2036 817" fill="none" xmlns="http://www.w3.org/2000/svg">
<path fill-rule="evenodd" clip-rule="evenodd" d="M1243.64 359.846C1259.88 326.69 1269 289.41 1269 250C1269 111.929 1157.07 0 1019 0C880.929 0 769 111.929 769 250C769 289.41 778.119 326.69 794.362 359.846C794.71 361.277 795.204 362.705 795.853 364.115L998.106 803.599C1006.32 821.446 1031.68 821.446 1039.89 803.599L1242.15 364.115C1242.8 362.705 1243.29 361.277 1243.64 359.846ZM1019 400C1101.84 400 1169 332.843 1169 250C1169 167.157 1101.84 100 1019 100C936.157 100 869 167.157 869 250C869 332.843 936.157 400 1019 400Z" fill="#1A717A"/>
<path d="M767.046 405.168C772.902 414.987 776.5 421 776.5 421C776.5 421 772.665 415.232 767.046 405.168C745.724 369.416 694.475 283.204 678 253C657 214.5 650 186 571 186C492 186 416 222 327 222C238 222 0.5 78.5 0.5 78.5C116.485 140.713 219 186 320.5 186C422 186 525 131.5 571 118C617 104.5 803.5 62.5 759 118C759 118 737 139 724.5 231.5C715.048 301.444 749.622 373.96 767.046 405.168Z" fill="#1A717A"/>
<path d="M1269.45 404.668C1263.6 414.487 1260 420.5 1260 420.5C1260 420.5 1263.84 414.732 1269.45 404.668C1290.78 368.916 1342.03 282.704 1358.5 252.5C1379.5 214 1386.5 185.5 1465.5 185.5C1544.5 185.5 1620.5 221.5 1709.5 221.5C1798.5 221.5 2036 78 2036 78C1920.01 140.213 1817.5 185.5 1716 185.5C1614.5 185.5 1511.5 131 1465.5 117.5C1419.5 104 1233 62 1277.5 117.5C1277.5 117.5 1299.5 138.5 1312 231C1321.45 300.944 1286.88 373.46 1269.45 404.668Z" fill="#1A717A"/>
</svg>
