<svg width="2036" height="1592" viewBox="0 0 2036 1592" fill="none" xmlns="http://www.w3.org/2000/svg">
<path fill-rule="evenodd" clip-rule="evenodd" d="M1243.64 359.846C1259.88 326.69 1269 289.41 1269 250C1269 111.929 1157.07 0 1019 0C880.929 0 769 111.929 769 250C769 289.41 778.119 326.69 794.362 359.846C794.71 361.277 795.204 362.705 795.853 364.115L998.106 803.599C1006.32 821.446 1031.68 821.446 1039.89 803.599L1242.15 364.115C1242.8 362.705 1243.29 361.277 1243.64 359.846ZM1019 400C1101.84 400 1169 332.843 1169 250C1169 167.157 1101.84 100 1019 100C936.157 100 869 167.157 869 250C869 332.843 936.157 400 1019 400Z" fill="#3AE894"/>
<path d="M767.046 405.168C772.902 414.987 776.5 421 776.5 421C776.5 421 772.665 415.232 767.046 405.168C745.724 369.416 694.475 283.204 678 253C657 214.5 650 186 571 186C492 186 416 222 327 222C238 222 0.5 78.5 0.5 78.5C116.485 140.713 219 186 320.5 186C422 186 525 131.5 571 118C617 104.5 803.5 62.5 759 118C759 118 737 139 724.5 231.5C715.048 301.444 749.622 373.96 767.046 405.168Z" fill="#3AE894"/>
<path d="M1269.45 404.668C1263.6 414.487 1260 420.5 1260 420.5C1260 420.5 1263.84 414.732 1269.45 404.668C1290.78 368.916 1342.03 282.704 1358.5 252.5C1379.5 214 1386.5 185.5 1465.5 185.5C1544.5 185.5 1620.5 221.5 1709.5 221.5C1798.5 221.5 2036 78 2036 78C1920.01 140.213 1817.5 185.5 1716 185.5C1614.5 185.5 1511.5 131 1465.5 117.5C1419.5 104 1233 62 1277.5 117.5C1277.5 117.5 1299.5 138.5 1312 231C1321.45 300.944 1286.88 373.46 1269.45 404.668Z" fill="#3AE894"/>
<path d="M222.488 1591.25C218.488 1591.25 215.238 1590.08 212.738 1587.75C210.405 1585.42 209.238 1582.25 209.238 1578.25V1294.75H102.988C98.9883 1294.75 95.7383 1293.58 93.2383 1291.25C90.9049 1288.92 89.7383 1285.75 89.7383 1281.75C89.7383 1277.75 90.9049 1274.58 93.2383 1272.25C95.7383 1269.75 98.9883 1268.5 102.988 1268.5H341.988C345.988 1268.5 349.155 1269.75 351.488 1272.25C353.822 1274.58 354.988 1277.75 354.988 1281.75C354.988 1285.75 353.822 1288.92 351.488 1291.25C349.155 1293.58 345.988 1294.75 341.988 1294.75H235.488V1578.25C235.488 1582.08 234.238 1585.25 231.738 1587.75C229.405 1590.08 226.322 1591.25 222.488 1591.25Z" fill="#3AE894"/>
<path d="M379.258 1591C370.424 1591 366.008 1586.58 366.008 1577.75V1367.75C366.008 1359.08 370.424 1354.75 379.258 1354.75C387.924 1354.75 392.258 1359.08 392.258 1367.75V1406.25C400.924 1389.58 413.424 1376.83 429.758 1368C446.258 1359.17 465.758 1354.75 488.258 1354.75C497.091 1354.75 501.508 1359.08 501.508 1367.75C501.508 1376.58 497.091 1381 488.258 1381C458.591 1381 435.591 1387.75 419.258 1401.25C402.924 1414.58 393.924 1433.67 392.258 1458.5V1577.75C392.258 1586.58 387.924 1591 379.258 1591Z" fill="#3AE894"/>
<path d="M609.598 1591C583.598 1591 564.514 1585 552.348 1573C540.348 1560.83 534.348 1541.75 534.348 1515.75C534.348 1489.75 540.431 1470.67 552.598 1458.5C564.764 1446.33 583.764 1440.25 609.598 1440.25H723.348C723.014 1418.25 718.014 1402.92 708.348 1394.25C698.848 1385.42 682.598 1381 659.598 1381H630.598C609.431 1381 593.931 1383.25 584.098 1387.75C574.264 1392.25 568.181 1399.92 565.848 1410.75C564.681 1414.92 563.098 1418 561.098 1420C559.264 1421.83 556.264 1422.75 552.098 1422.75C547.764 1422.75 544.348 1421.58 541.848 1419.25C539.514 1416.75 538.681 1413.42 539.348 1409.25C541.514 1390.25 550.098 1376.42 565.098 1367.75C580.264 1359.08 602.098 1354.75 630.598 1354.75H659.598C690.764 1354.75 713.514 1362 727.848 1376.5C742.348 1390.83 749.598 1413.58 749.598 1444.75V1577.75C749.598 1586.58 745.264 1591 736.598 1591C727.764 1591 723.348 1586.58 723.348 1577.75V1553C707.348 1578.33 678.764 1591 637.598 1591H609.598ZM609.598 1564.75H637.598C653.764 1564.75 667.931 1563 680.098 1559.5C692.431 1555.83 702.348 1550 709.848 1542C717.348 1534 721.848 1523.33 723.348 1510V1466.5H609.598C591.098 1466.5 578.264 1470.08 571.098 1477.25C564.098 1484.25 560.598 1497.08 560.598 1515.75C560.598 1534.25 564.098 1547.08 571.098 1554.25C578.264 1561.25 591.098 1564.75 609.598 1564.75Z" fill="#3AE894"/>
<path d="M924.531 1581C922.698 1585 920.448 1587.67 917.781 1589C915.115 1590.33 912.031 1591 908.531 1591C901.198 1591 896.031 1587.58 893.031 1580.75L800.281 1373C796.781 1364.83 799.198 1359.17 807.531 1356C815.365 1352.67 821.031 1355 824.531 1363L917.031 1570H901.031L999.531 1362.75C1001.36 1358.92 1003.78 1356.42 1006.78 1355.25C1009.78 1354.08 1013.2 1354.33 1017.03 1356C1025.2 1359.67 1027.45 1365.5 1023.78 1373.5L924.531 1581Z" fill="#3AE894"/>
<path d="M1094 1483V1501.25C1094 1524.75 1098.67 1541.25 1108 1550.75C1117.5 1560.08 1134.17 1564.75 1158 1564.75H1199C1220 1564.75 1235.25 1562.08 1244.75 1556.75C1254.42 1551.25 1260.17 1541.83 1262 1528.5C1262.67 1524.33 1264 1521.17 1266 1519C1268.17 1516.83 1271.42 1515.75 1275.75 1515.75C1280.09 1515.75 1283.34 1517 1285.5 1519.5C1287.84 1521.83 1288.75 1525.17 1288.25 1529.5C1286.09 1550.5 1277.67 1566 1263 1576C1248.34 1586 1227 1591 1199 1591H1158C1126.84 1591 1104 1583.83 1089.5 1569.5C1075 1555 1067.75 1532.25 1067.75 1501.25V1444.75C1067.75 1413.25 1075 1390.33 1089.5 1376C1104 1361.5 1126.84 1354.42 1158 1354.75H1199C1230.17 1354.75 1252.92 1362 1267.25 1376.5C1281.75 1390.83 1289 1413.58 1289 1444.75V1469.75C1289 1478.58 1284.67 1483 1276 1483H1094ZM1158 1381C1134.17 1380.67 1117.5 1385.25 1108 1394.75C1098.67 1404.08 1094 1420.75 1094 1444.75V1456.75H1262.75V1444.75C1262.75 1420.92 1258.09 1404.33 1248.75 1395C1239.42 1385.67 1222.84 1381 1199 1381H1158Z" fill="#3AE894"/>
<path d="M1444.52 1591C1420.86 1591 1403.44 1585.5 1392.27 1574.5C1381.27 1563.5 1375.77 1546.25 1375.77 1522.75V1257.25C1375.77 1248.58 1380.19 1244.25 1389.02 1244.25C1397.69 1244.25 1402.02 1248.58 1402.02 1257.25V1522.75C1402.02 1538.92 1405.02 1550 1411.02 1556C1417.02 1561.83 1428.11 1564.75 1444.27 1564.75C1453.27 1564.75 1457.77 1569.08 1457.77 1577.75C1457.94 1586.58 1453.52 1591 1444.52 1591Z" fill="#3AE894"/>
<path d="M1531.02 1483V1501.25C1531.02 1524.75 1535.68 1541.25 1545.02 1550.75C1554.52 1560.08 1571.18 1564.75 1595.02 1564.75H1636.02C1657.02 1564.75 1672.27 1562.08 1681.77 1556.75C1691.43 1551.25 1697.18 1541.83 1699.02 1528.5C1699.68 1524.33 1701.02 1521.17 1703.02 1519C1705.18 1516.83 1708.43 1515.75 1712.77 1515.75C1717.1 1515.75 1720.35 1517 1722.52 1519.5C1724.85 1521.83 1725.77 1525.17 1725.27 1529.5C1723.1 1550.5 1714.68 1566 1700.02 1576C1685.35 1586 1664.02 1591 1636.02 1591H1595.02C1563.85 1591 1541.02 1583.83 1526.52 1569.5C1512.02 1555 1504.77 1532.25 1504.77 1501.25V1444.75C1504.77 1413.25 1512.02 1390.33 1526.52 1376C1541.02 1361.5 1563.85 1354.42 1595.02 1354.75H1636.02C1667.18 1354.75 1689.93 1362 1704.27 1376.5C1718.77 1390.83 1726.02 1413.58 1726.02 1444.75V1469.75C1726.02 1478.58 1721.68 1483 1713.02 1483H1531.02ZM1595.02 1381C1571.18 1380.67 1554.52 1385.25 1545.02 1394.75C1535.68 1404.08 1531.02 1420.75 1531.02 1444.75V1456.75H1699.77V1444.75C1699.77 1420.92 1695.1 1404.33 1685.77 1395C1676.43 1385.67 1659.85 1381 1636.02 1381H1595.02Z" fill="#3AE894"/>
<path d="M1826.04 1591C1817.2 1591 1812.79 1586.58 1812.79 1577.75V1367.75C1812.79 1359.08 1817.2 1354.75 1826.04 1354.75C1834.7 1354.75 1839.04 1359.08 1839.04 1367.75V1406.25C1847.7 1389.58 1860.2 1376.83 1876.54 1368C1893.04 1359.17 1912.54 1354.75 1935.04 1354.75C1943.87 1354.75 1948.29 1359.08 1948.29 1367.75C1948.29 1376.58 1943.87 1381 1935.04 1381C1905.37 1381 1882.37 1387.75 1866.04 1401.25C1849.7 1414.58 1840.7 1433.67 1839.04 1458.5V1577.75C1839.04 1586.58 1834.7 1591 1826.04 1591Z" fill="#3AE894"/>
</svg>
